<?xml version="1.0" standalone="no"?>
<!DOCTYPE svg PUBLIC "-//W3C//DTD SVG 20010904//EN"
 "http://www.w3.org/TR/2001/REC-SVG-20010904/DTD/svg10.dtd">
<svg version="1.0" xmlns="http://www.w3.org/2000/svg"
 width="200.000000pt" height="200.000000pt" viewBox="0 0 200.000000 200.000000"
 preserveAspectRatio="xMidYMid meet">
<metadata>
Created by potrace 1.14, written by Peter Selinger 2001-2017
</metadata>
<g transform="translate(0.000000,200.000000) scale(0.100000,-0.100000)"
fill="#000000" stroke="none">
<path d="M798 1289 c-96 -10 -152 -32 -238 -89 -52 -35 -105 -60 -173 -81 -96
-30 -99 -31 -118 -72 -13 -31 -19 -65 -19 -127 0 -47 4 -90 8 -97 11 -17 51
-30 79 -25 20 4 23 10 23 44 0 119 149 190 250 118 36 -25 69 -90 70 -132 l0
-28 315 0 315 0 0 39 c0 77 78 151 160 151 81 0 148 -61 157 -144 l6 -46 53 0
c53 0 53 0 60 36 8 42 1 118 -15 157 -15 39 -92 72 -216 94 -86 15 -108 23
-160 59 -119 82 -242 128 -375 139 -36 3 -76 7 -90 9 -14 1 -55 -1 -92 -5z
m106 -80 c3 -17 6 -47 6 -65 l0 -34 -165 0 c-97 0 -165 4 -165 9 0 12 53 53
99 76 37 19 139 43 187 44 27 1 32 -3 38 -30z m154 15 c85 -17 180 -59 227
-99 l30 -26 -162 3 c-90 2 -167 8 -172 13 -13 15 -23 125 -11 125 6 0 46 -7
88 -16z"/>
<path d="M1442 949 c-99 -21 -130 -147 -51 -213 45 -38 117 -37 160 2 27 24
33 37 37 84 4 52 2 57 -31 90 -39 39 -65 48 -115 37z"/>
<path d="M435 917 c-38 -38 -50 -74 -40 -114 3 -14 21 -41 40 -60 27 -27 41
-33 74 -33 103 0 162 92 116 180 -22 43 -53 60 -108 60 -42 0 -54 -5 -82 -33z"/>
</g>
</svg>
